<mxfile host="app.diagrams.net" modified="2020-12-14T12:00:35.438Z" agent="5.0 (Windows)" etag="_U8D5czmd6NKFEytHpOu" version="14.0.0" type="github">
  <diagram id="hlPL0Bq8MXGjqF8pz6ak" name="Page-1">
    <mxGraphModel dx="1038" dy="547" grid="1" gridSize="10" guides="1" tooltips="1" connect="1" arrows="1" fold="1" page="1" pageScale="1" pageWidth="1169" pageHeight="827" math="0" shadow="0">
      <root>
        <mxCell id="0" />
        <mxCell id="1" parent="0" />
        <mxCell id="4R2nqGt3JkrkRLi6oZFs-1" value="Preparation of LPO/LSO" style="swimlane;html=1;childLayout=stackLayout;resizeParent=1;resizeParentMax=0;horizontal=1;startSize=20;horizontalStack=0;" vertex="1" parent="1">
          <mxGeometry x="10" y="10" width="760" height="630" as="geometry" />
        </mxCell>
        <mxCell id="4R2nqGt3JkrkRLi6oZFs-2" value="SCO" style="swimlane;html=1;startSize=20;horizontal=0;" vertex="1" parent="4R2nqGt3JkrkRLi6oZFs-1">
          <mxGeometry y="20" width="760" height="270" as="geometry" />
        </mxCell>
        <mxCell id="4R2nqGt3JkrkRLi6oZFs-6" value="Start" style="rounded=1;whiteSpace=wrap;html=1;" vertex="1" parent="4R2nqGt3JkrkRLi6oZFs-2">
          <mxGeometry x="230" y="10" width="90" height="50" as="geometry" />
        </mxCell>
        <mxCell id="4R2nqGt3JkrkRLi6oZFs-3" value="HSCM" style="swimlane;html=1;startSize=20;horizontal=0;" vertex="1" parent="4R2nqGt3JkrkRLi6oZFs-1">
          <mxGeometry y="290" width="760" height="170" as="geometry" />
        </mxCell>
        <mxCell id="4R2nqGt3JkrkRLi6oZFs-4" value="CEO" style="swimlane;html=1;startSize=20;horizontal=0;" vertex="1" parent="4R2nqGt3JkrkRLi6oZFs-1">
          <mxGeometry y="460" width="760" height="170" as="geometry" />
        </mxCell>
      </root>
    </mxGraphModel>
  </diagram>
</mxfile>
